<svg xmlns="http://www.w3.org/2000/svg" width="512" height="512" viewBox="0 0 512 512"><path fill="#FFF" d="M482,308.854 L482,203.146 C499.124,199.461 512,184.209 512,166 C512,135.918 478.604,117.939 453.575,133.959 L378.041,58.425 C394.063,33.393 376.079,0 346,0 C322.417,0 304.329,21.426 308.631,44.87 L220.717,81.403 L197.925,58.61 C214.046,33.755 196.33,0 166,0 C135.957,0 117.914,33.356 133.959,58.426 L58.425,133.96 C33.39,117.935 -2.84217094e-14,135.927 -2.84217094e-14,166 C-2.84217094e-14,189.629 21.466,207.66 44.87,203.369 L66.741,256 L44.87,308.631 C21.381,304.321 -2.84217094e-14,322.462 -2.84217094e-14,346 C-2.84217094e-14,376.082 33.396,394.061 58.425,378.041 L133.959,453.575 C117.935,478.61 135.927,512 166,512 C184.209,512 199.46,499.124 203.145,482 L308.854,482 C312.539,499.124 327.791,512 345.999,512 C366.952,512 383.999,494.953 383.999,474 C383.999,453.047 366.952,436 345.999,436 C327.79,436 312.539,448.876 308.854,466 L206.089,466 L442.774,367.646 C463.762,398.023 512,383.25 512,346 C512,327.791 499.124,312.54 482,308.854 Z M75.385,339.219 L97.525,330.079 L143.338,440.325 L69.809,366.796 C75.192,358.605 77.109,348.75 75.385,339.219 Z M283.969,167.283 L249.873,249.875 L106.175,309.198 L84.068,256 L134.543,134.537 L216.968,100.281 L283.969,167.283 Z M360.732,221.418 L405.825,202.802 L451.124,311.81 L360.732,221.418 Z M420.615,196.696 L442.718,187.571 C448.203,195.557 456.52,201.12 466,203.144 L466,305.911 L420.615,196.696 Z M436.615,172.781 L414.475,181.921 L368.662,71.676 L442.191,145.205 C436.808,153.395 434.891,163.25 436.615,172.781 Z M339.223,75.385 C343.637,76.184 348.171,76.231 352.87,75.369 L399.685,188.027 L348.48,209.166 L302.835,163.521 L339.223,75.385 Z M332.464,215.778 L270.74,241.26 L296.222,179.537 L332.464,215.778 Z M241.258,270.741 L172.781,436.616 C168.222,435.792 163.693,435.795 159.13,436.632 L112.314,323.974 L241.258,270.741 Z M197.213,452.361 C194.601,448.609 191.324,445.34 187.564,442.736 L262.126,262.127 L344.716,228.031 L442.076,325.391 C436.71,333.664 434.911,343.495 436.633,352.873 L197.213,452.361 Z M314.786,59.638 C317.398,63.391 320.677,66.662 324.439,69.266 L290.581,151.266 L232.953,93.638 L314.786,59.638 Z M143.244,113.597 L159.13,75.368 C168.527,77.093 178.354,75.279 186.61,69.924 L204.731,88.045 L143.244,113.597 Z M71.676,143.338 L143.338,71.676 L122.301,122.301 L71.676,143.338 Z M59.645,197.228 C71.875,188.779 78.086,173.944 75.37,159.13 L113.599,143.242 L75.405,235.153 L59.645,197.228 Z M91.385,315.304 L69.264,324.436 C66.66,320.676 63.39,317.398 59.639,314.786 L75.405,276.848 L91.385,315.304 Z"/></svg>