<svg xmlns="http://www.w3.org/2000/svg" xmlns:xlink="http://www.w3.org/1999/xlink" id="Layer_1" x="0" y="0" baseProfile="tiny" version="1.2" viewBox="0 0 1280 1024" xml:space="preserve"><linearGradient id="SVGID_1_" x1="640" x2="640" y1="-.5" y2="1024.5" gradientUnits="userSpaceOnUse"><stop offset="0" style="stop-color:#333"/><stop offset="1" style="stop-color:#000"/></linearGradient><rect width="1280" height="1024" fill="#1A1A1A" stroke="url(#SVGID_1_)" stroke-miterlimit="10"/><g><path fill="#A31C37" d="M316.872345,657H453.127655C456.9074402,657,460,660.0925903,460,663.8723755v136.2553101 C460,803.9074707,456.9074402,807,453.127655,807H316.872345C313.0925598,807,310,803.9074707,310,800.1276855V663.8723755 C310,660.0925903,313.0925598,657,316.872345,657z"/><path fill="#F15A24" d="M299.8106384,679.5h95.3787231C397.8352051,679.5,400,681.6647949,400,684.3106689v95.3787231 c0,2.645813-2.1647949,4.8106079-4.8106384,4.8106079h-95.3787231C297.1647949,784.5,295,782.3352051,295,779.6893921v-95.3787231 C295,681.6647949,297.1647949,679.5,299.8106384,679.5z"/><path fill="#FBB03B" d="M282.7489319,702h54.5021362C338.76297,702,340,703.2370605,340,704.7489624v54.5021362 C340,760.7630005,338.76297,762,337.2510681,762h-54.5021362C281.23703,762,280,760.7630005,280,759.2510986v-54.5021362 C280,703.2370605,281.23703,702,282.7489319,702z"/></g><g><g><path fill="#F2F2F2" d="M343.8206482,856.2056885V881c0,0.5523071-0.4477234,1-1,1h-4.1908875c-0.5522766,0-1-0.4476929-1-1 v-24.7943115c0-0.6939697-0.5677795-1.2617188-1.2617188-1.2617188h-18.9154358 c-0.6939697,0-1.2617493,0.567749-1.2617493,1.2617188V881c0,0.5523071-0.4476929,1-1,1H311c-0.5522766,0-1-0.4476929-1-1 v-31.2468872c0-0.5523071,0.4477234-1,1-1h25.368042C340.4840088,848.7531128,343.8206482,852.0897217,343.8206482,856.2056885z"/><path fill="#F2F2F2" d="M375.5166321,848.7531128c4.1268616,0,7.451416,3.3245239,7.451416,7.4525757v18.3428955 c0,4.1268311-3.3245544,7.451416-7.451416,7.451416h-18.916626c-4.1268311,0-7.451416-3.324585-7.451416-7.451416v-18.3428955 c0-4.1280518,3.324585-7.4525757,7.451416-7.4525757H375.5166321z M356.6000061,854.9439697 c-0.6879883,0-1.2605591,0.5737305-1.2605591,1.2617188v18.3428955c0,0.6879883,0.5725708,1.2605591,1.2605591,1.2605591 h18.916626c0.6879883,0,1.2605591-0.5725708,1.2605591-1.2605591v-18.3428955 c0-0.6879883-0.5725708-1.2617188-1.2605591-1.2617188H356.6000061z"/><path fill="#F2F2F2" d="M421.025177,838v43c0,0.5523071-0.4477234,1-1,1h-25.368042 c-4.1153259,0-7.4514465-3.3361206-7.4514465-7.451416v-18.3428955c0-4.1159668,3.3366394-7.4525757,7.4526062-7.4525757 h20.1759949V838c0-0.5523071,0.4477234-1,1-1h4.1908875C420.5774536,837,421.025177,837.4476929,421.025177,838z M413.5737305,875.8091431c0.6932983,0,1.2605591-0.5672607,1.2605591-1.2605591v-18.3428955 c0-0.6939697-0.5677795-1.2617188-1.2617188-1.2617188H394.657135c-0.6939697,0-1.2617493,0.567749-1.2617493,1.2617188 v18.3428955c0,0.6932983,0.5672607,1.2605591,1.2605591,1.2605591H413.5737305z"/><path fill="#F2F2F2" d="M460,856.2045288v11.2674561c0,0.5523071-0.4477234,1-1,1h-26.6286011v6.0765991 c0,0.6932983,0.5672607,1.2605591,1.2605591,1.2605591H459c0.5522766,0,1,0.4476929,1,1V881c0,0.5523071-0.4477234,1-1,1 h-25.368042c-4.1152954,0-7.451416-3.3361206-7.451416-7.451416v-18.3428955c0-4.1159668,3.3366394-7.4525757,7.4525757-7.4525757 h18.9154358C456.6638794,848.7531128,460,852.0892334,460,856.2045288z M453.8091431,862.2811279v-6.0754395 c0-0.6939697-0.5677795-1.2617188-1.2617493-1.2617188H433.631958c-0.6932983,0-1.2605591,0.5672607-1.2605591,1.2605591 v6.0765991H453.8091431z"/></g><g><path fill="#F2F2F2" d="M317.1982422,839.916748c0,0.197937-0.0313721,0.3746948-0.1042786,0.5310669 c0.2394714,0.250061,0.4060364,0.614563,0.4060364,0.989624v1.6147461c0,0.8018799-0.6560669,1.4478149-1.458374,1.4478149H310 V837h5.7500305c0.791687,0,1.4482117,0.6459351,1.4482117,1.4478149V839.916748z M311.4477844,838.3748779 c-0.0415344,0-0.0729065,0.0313721-0.0729065,0.072937v1.4689331c0,0.0415649,0.0313721,0.072937,0.0729065,0.072937h4.3022461 c0.0313721,0,0.0627136-0.0313721,0.0627136-0.072937v-1.4689331c0-0.0415649-0.0313416-0.072937-0.0627136-0.072937H311.4477844z M316.1145325,841.437439c0-0.0415039-0.0309448-0.0623169-0.0729065-0.0623169h-4.5938416 c-0.0415344,0-0.0729065,0.020813-0.0729065,0.0623169v1.6147461c0,0.0415649,0.0313721,0.072937,0.0729065,0.072937h4.5938416 c0.0419617,0,0.0729065-0.0313721,0.0729065-0.072937V841.437439z"/><path fill="#F2F2F2" d="M319.6869202,837h1.3749084v7.5h-1.3749084V837z"/><path fill="#F2F2F2" d="M330.1342163,837v1.3748779h-3.0523987V844.5h-1.3850403v-6.1251221h-3.062561V837H330.1342163z"/><path fill="#F2F2F2" d="M333.4044495,838.3748779c-0.0419617,0-0.0729065,0.0313721-0.0729065,0.072937v4.6043701 c0,0.0415649,0.0309448,0.072937,0.0729065,0.072937h6.0310059V844.5h-6.0310059 c-0.8023071,0-1.4482117-0.6459351-1.4482117-1.4478149v-4.6043701c0-0.8018799,0.6459045-1.4478149,1.4482117-1.4478149 h6.0310059v1.3748779H333.4044495z"/><path fill="#F2F2F2" d="M347.5906982,837c0.7917175,0,1.4477844,0.6459351,1.4477844,1.4478149v4.6043701 c0,0.8018799-0.6560669,1.4478149-1.4477844,1.4478149h-4.6040039c-0.8023071,0-1.4482117-0.6459351-1.4482117-1.4478149 v-4.6043701c0-0.8018799,0.6459045-1.4478149,1.4482117-1.4478149H347.5906982z M347.5906982,843.1251221 c0.0313721,0,0.0627136-0.0313721,0.0627136-0.072937v-4.6043701c0-0.0415649-0.0313416-0.072937-0.0627136-0.072937h-4.6040039 c-0.0419617,0-0.0729065,0.0313721-0.0729065,0.072937v4.6043701c0,0.0415649,0.0309448,0.072937,0.0729065,0.072937H347.5906982z"/><path fill="#F2F2F2" d="M351.2360229,837h1.3748779v7.5h-1.3748779V837z"/><path fill="#F2F2F2" d="M360.6733093,837h1.385498v7.5h-1.5003357l-4.6247864-5.5v5.5h-1.3753052V837h1.5003357l4.6145935,5.5V837 z"/><path fill="#F2F2F2" d="M365.7138672,838.3748779c-0.0419617,0-0.0729065,0.0313721-0.0729065,0.072937v4.6043701 c0,0.0415649,0.0309448,0.072937,0.0729065,0.072937h6.0310059V844.5h-6.0310059 c-0.8023071,0-1.4482117-0.6459351-1.4482117-1.4478149v-4.6043701c0-0.8018799,0.6459045-1.4478149,1.4482117-1.4478149 h6.0310059v1.3748779H365.7138672z"/><path fill="#F2F2F2" d="M379.9319153,837c0.8018799,0,1.458374,0.6459351,1.458374,1.4478149V844.5h-1.385498v-2.5209351 h-4.739624V844.5h-1.3748779v-6.0521851c0-0.8018799,0.6454773-1.4478149,1.4477844-1.4478149H379.9319153z M380.0047913,840.604187v-2.1563721c0-0.0415649-0.0313416-0.072937-0.072876-0.072937h-4.5938416 c-0.0415344,0-0.0729065,0.0313721-0.0729065,0.072937v2.1563721H380.0047913z"/><path fill="#F2F2F2" d="M391.0666199,839.020813h-1.3854675v-0.572998c0-0.0415649-0.0313721-0.072937-0.0627441-0.072937 h-4.6040039c-0.0415344,0-0.0729065,0.0313721-0.0729065,0.072937v1.5418701c0,0.0415039,0.0313721,0.072876,0.0729065,0.072876 h4.6040039c0.7917175,0,1.4482117,0.645874,1.4482117,1.4477539v1.5418701c0,0.8018799-0.6564941,1.4478149-1.4482117,1.4478149 h-4.6040039c-0.8023071,0-1.4482117-0.6459351-1.4482117-1.4478149v-0.572998h1.3753052v0.572998 c0,0.0415649,0.0313721,0.072937,0.0729065,0.072937h4.6040039c0.0313721,0,0.0627441-0.0313721,0.0627441-0.072937v-1.5418701 c0-0.0415039-0.0313721-0.072876-0.0627441-0.072876h-4.6040039c-0.8023071,0-1.4482117-0.645874-1.4482117-1.4477539v-1.5418701 c0-0.8018799,0.6459045-1.4478149,1.4482117-1.4478149h4.6040039c0.7917175,0,1.4482117,0.6459351,1.4482117,1.4478149V839.020813 z"/><path fill="#F2F2F2" d="M400.8989258,837v7.5h-1.3748779v-3.062561h-4.9167786V844.5h-1.3749084V837h1.3749084v3.062561h4.9167786 V837H400.8989258z"/></g></g><g><path fill="#A31C37" d="M856.8723145,657h136.2553711C996.9074707,657,1000,660.0925903,1000,663.8723755v136.2553101 C1000,803.9074707,996.9074707,807,993.1276855,807H856.8723145C853.0925293,807,850,803.9074707,850,800.1276855V663.8723755 C850,660.0925903,853.0925293,657,856.8723145,657z"/><path fill="#F15A24" d="M839.8106079,679.5h95.3787231C937.8352051,679.5,940,681.6647949,940,684.3106689v95.3787231 c0,2.645813-2.1647949,4.8106079-4.8106689,4.8106079h-95.3787231C837.1647949,784.5,835,782.3352051,835,779.6893921v-95.3787231 C835,681.6647949,837.1647949,679.5,839.8106079,679.5z"/><path fill="#FBB03B" d="M822.7489624,702h54.5020752C878.7630005,702,880,703.2370605,880,704.7489624v54.5021362 C880,760.7630005,878.7630005,762,877.2510376,762h-54.5020752C821.2369995,762,820,760.7630005,820,759.2510986v-54.5021362 C820,703.2370605,821.2369995,702,822.7489624,702z"/></g><g><path fill="#A31C37" d="M859.3723145,417h136.2553711c3.7797852,0,6.8723145-3.0925598,6.8723145-6.872345V273.872345 c0-3.7797852-3.0925293-6.872345-6.8723145-6.872345H859.3723145C855.5925293,267,852.5,270.0925598,852.5,273.872345V410.127655 C852.5,413.9074402,855.5925293,417,859.3723145,417z"/><path fill="#F15A24" d="M842.3106079,394.5h95.3787842c2.645813,0,4.8106079-2.1647949,4.8106079-4.8106384v-95.3787231 c0-2.6458435-2.1647949-4.8106384-4.8106079-4.8106384h-95.3787842c-2.645813,0-4.8106079,2.1647949-4.8106079,4.8106384 v95.3787231C837.5,392.3352051,839.6647949,394.5,842.3106079,394.5z"/><path fill="#FBB03B" d="M825.2489624,372h54.5020752c1.5119629,0,2.7489624-1.23703,2.7489624-2.7489319v-54.5021362 C882.5,313.23703,881.2630005,312,879.7510376,312h-54.5020752C823.7369995,312,822.5,313.23703,822.5,314.7489319v54.5021362 C822.5,370.76297,823.7369995,372,825.2489624,372z"/></g><g><g><path fill="#F2F2F2" d="M397.7354431,331.0189514v82.6477051c0,1.8409729-1.4923706,3.3333435-3.333313,3.3333435h-13.969574 c-1.8409424,0-3.333313-1.4923706-3.333313-3.3333435v-82.6477051c0-2.3131714-1.8926086-4.2057495-4.20578-4.2057495H309.84198 c-2.3131714,0-4.2057495,1.8925781-4.2057495,4.2057495v82.6477051c0,1.8409729-1.4924011,3.3333435-3.3333435,3.3333435 h-13.9695435C286.4923706,417,285,415.5076294,285,413.6666565V309.5102844c0-1.8409424,1.4923706-3.333313,3.3333435-3.333313 h84.5601196C386.6133118,306.1769714,397.7354431,317.2991028,397.7354431,331.0189514z"/><path fill="#F2F2F2" d="M503.3887634,306.1769714c13.7561951,0,24.8381042,11.0819092,24.8381042,24.84198v61.1429443 C528.2268677,405.9180908,517.1449585,417,503.3887634,417h-63.0553589 c-13.7561951,0-24.8381042-11.0819092-24.8381042-24.8381042v-61.1429443c0-13.7600708,11.0819092-24.84198,24.8381042-24.84198 H503.3887634z M440.3334045,326.8132019c-2.2933655,0-4.2019043,1.9124146-4.2019043,4.2057495v61.1429443 c0,2.293335,1.9085388,4.2018738,4.2019043,4.2018738h63.0553589c2.293335,0,4.2018738-1.9085388,4.2018738-4.2018738v-61.1429443 c0-2.293335-1.9085388-4.2057495-4.2018738-4.2057495H440.3334045z"/><path fill="#F2F2F2" d="M655.0838623,270.3333435v143.333313c0,1.8409729-1.4923706,3.3333435-3.333313,3.3333435h-84.5601196 c-13.7177124,0-24.8381348-11.1203918-24.8381348-24.8381042v-61.1429443c0-13.7198486,11.1221313-24.84198,24.84198-24.84198 h67.2533569v-35.8436279c0-1.8409729,1.4924316-3.3333435,3.333374-3.3333435h13.9695435 C653.5914917,267,655.0838623,268.4923706,655.0838623,270.3333435z M630.2457886,396.3637695 c2.3110352,0,4.2018433-1.8908386,4.2018433-4.2018738v-61.1429443c0-2.3131714-1.8925781-4.2057495-4.2057495-4.2057495 h-63.0514526c-2.3131714,0-4.2057495,1.8925781-4.2057495,4.2057495v61.1429443 c0,2.3110352,1.8908081,4.2018738,4.2018433,4.2018738H630.2457886z"/><path fill="#F2F2F2" d="M785,331.0150757v37.558197c0,1.8409424-1.4923706,3.333313-3.333313,3.333313h-88.7620239v20.2553101 c0,2.3110352,1.8908691,4.2018738,4.2018433,4.2018738h84.5601807c1.8409424,0,3.333313,1.4924011,3.333313,3.3333435v13.9695435 C785,415.5076294,783.5076294,417,781.666687,417h-84.5601807c-13.7176514,0-24.8380737-11.1203918-24.8380737-24.8381042 v-61.1429443c0-13.7198486,11.1221313-24.84198,24.84198-24.84198h63.0514526 C773.8795776,306.1769714,785,317.2973633,785,331.0150757z M764.3637695,351.2703552v-20.2514038 c0-2.3131714-1.8925781-4.2057495-4.2057495-4.2057495h-63.0515137c-2.3109741,0-4.2018433,1.8908386-4.2018433,4.2018738 v20.2552795H764.3637695z"/></g><g><path fill="#F2F2F2" d="M308.9941101,276.7225342c0,0.6597595-0.1045227,1.2488708-0.3475342,1.7701721 C309.4447937,279.3262329,310,280.5411987,310,281.7914734v5.3825684C310,289.8469849,307.8130798,292,305.1387329,292H285v-25 h19.166748c2.6390381,0,4.8273621,2.1530151,4.8273621,4.8259583V276.7225342z M289.8259583,271.5829468 c-0.1384583,0-0.2430115,0.1045532-0.2430115,0.2430115v4.8965759c0,0.1384583,0.1045532,0.242981,0.2430115,0.242981h14.3407898 c0.1045532,0,0.2091064-0.1045227,0.2091064-0.242981v-4.8965759c0-0.1384583-0.1045532-0.2430115-0.2091064-0.2430115 H289.8259583z M305.3817139,281.7914734c0-0.1384583-0.1031189-0.2076721-0.242981-0.2076721h-15.3127747 c-0.1384583,0-0.2430115,0.0692139-0.2430115,0.2076721v5.3825684c0,0.1384583,0.1045532,0.2430115,0.2430115,0.2430115 h15.3127747c0.1398621,0,0.242981-0.1045532,0.242981-0.2430115V281.7914734z"/><path fill="#F2F2F2" d="M317.2897949,267h4.5829468v25h-4.5829468V267z"/><path fill="#F2F2F2" d="M352.1140442,267v4.5829468h-10.1746216V292h-4.6168518v-20.4170532h-10.2085266V267H352.1140442z"/><path fill="#F2F2F2" d="M363.014801,271.5829468c-0.1398621,0-0.242981,0.1045532-0.242981,0.2430115v15.3480835 c0,0.1384583,0.1031189,0.2430115,0.242981,0.2430115h20.1034241V292H363.014801 c-2.6743164,0-4.8273621-2.1530151-4.8273621-4.8259583v-15.3480835c0-2.6729431,2.1530457-4.8259583,4.8273621-4.8259583 h20.1034241v4.5829468H363.014801z"/><path fill="#F2F2F2" d="M410.3023376,267c2.6390076,0,4.8259277,2.1530151,4.8259277,4.8259583v15.3480835 c0,2.6729431-2.1869202,4.8259583-4.8259277,4.8259583h-15.3467102c-2.6743164,0-4.8273621-2.1530151-4.8273621-4.8259583 v-15.3480835c0-2.6729431,2.1530457-4.8259583,4.8273621-4.8259583H410.3023376z M410.3023376,287.4170532 c0.1045227,0,0.2090759-0.1045532,0.2090759-0.2430115v-15.3480835c0-0.1384583-0.1045532-0.2430115-0.2090759-0.2430115 h-15.3467102c-0.1398621,0-0.242981,0.1045532-0.242981,0.2430115v15.3480835c0,0.1384583,0.1031189,0.2430115,0.242981,0.2430115 H410.3023376z"/><path fill="#F2F2F2" d="M422.4533691,267h4.5829773v25h-4.5829773V267z"/><path fill="#F2F2F2" d="M453.9110413,267h4.6182861v25h-5.0011292l-15.4159241-18.333252V292h-4.5843506v-25h5.0011292 l15.3819885,18.333252V267z"/><path fill="#F2F2F2" d="M470.7128601,271.5829468c-0.1398621,0-0.242981,0.1045532-0.242981,0.2430115v15.3480835 c0,0.1384583,0.1031189,0.2430115,0.242981,0.2430115h20.1034241V292h-20.1034241 c-2.6743164,0-4.8273621-2.1530151-4.8273621-4.8259583v-15.3480835c0-2.6729431,2.1530457-4.8259583,4.8273621-4.8259583 h20.1034241v4.5829468H470.7128601z"/><path fill="#F2F2F2" d="M518.1063232,267c2.6729736,0,4.8612671,2.1530151,4.8612671,4.8259583V292h-4.6182251v-8.4030151 h-15.7987976V292h-4.5829468v-20.1740417c0-2.6729431,2.1516113-4.8259583,4.8259583-4.8259583H518.1063232z M518.3493652,279.0140076v-7.1880493c0-0.1384583-0.1045532-0.2430115-0.243042-0.2430115h-15.3127441 c-0.1384583,0-0.2430115,0.1045532-0.2430115,0.2430115v7.1880493H518.3493652z"/><path fill="#F2F2F2" d="M555.2221069,273.7359924h-4.6182861v-1.9100342c0-0.1384583-0.1045532-0.2430115-0.2091064-0.2430115 h-15.3466797c-0.1384277,0-0.242981,0.1045532-0.242981,0.2430115v5.1395569c0,0.1384583,0.1045532,0.2430115,0.242981,0.2430115 h15.3466797c2.6390381,0,4.8273926,2.1530151,4.8273926,4.8259583v5.1395569c0,2.6729431-2.1883545,4.8259583-4.8273926,4.8259583 h-15.3466797c-2.6743164,0-4.8273926-2.1530151-4.8273926-4.8259583v-1.9100342h4.5844116v1.9100342 c0,0.1384583,0.1045532,0.2430115,0.242981,0.2430115h15.3466797c0.1045532,0,0.2091064-0.1045532,0.2091064-0.2430115v-5.1395569 c0-0.1384583-0.1045532-0.2430115-0.2091064-0.2430115h-15.3466797c-2.6743164,0-4.8273926-2.1530151-4.8273926-4.8259583 v-5.1395569c0-2.6729431,2.1530762-4.8259583,4.8273926-4.8259583h15.3466797 c2.6390381,0,4.8273926,2.1530151,4.8273926,4.8259583V273.7359924z"/><path fill="#F2F2F2" d="M587.99646,267v25h-4.5829468v-10.2085266h-16.3893433V292h-4.5829468v-25h4.5829468v10.2085266 h16.3893433V267H587.99646z"/></g></g></svg>
