<svg width="500" height="150" xmlns="http://www.w3.org/2000/svg"><g fill="#F2F2F2" fill-rule="nonzero"><path d="M112.735 64.019v82.648a3.333 3.333 0 0 1-3.333 3.333h-13.97a3.333 3.333 0 0 1-3.333-3.333V64.019a4.218 4.218 0 0 0-4.206-4.206H24.842a4.218 4.218 0 0 0-4.206 4.206v82.648A3.333 3.333 0 0 1 17.303 150H3.333A3.333 3.333 0 0 1 0 146.667V42.51a3.333 3.333 0 0 1 3.333-3.333h84.56c13.72 0 24.842 11.122 24.842 24.842zM218.389 39.177c13.756 0 24.838 11.082 24.838 24.842v61.143A24.789 24.789 0 0 1 218.389 150h-63.056a24.789 24.789 0 0 1-24.838-24.838V64.019c0-13.76 11.082-24.842 24.838-24.842h63.056zm-63.056 20.636c-2.293 0-4.202 1.913-4.202 4.206v61.143c0 2.293 1.909 4.202 4.202 4.202h63.056c2.293 0 4.202-1.909 4.202-4.202V64.019c0-2.293-1.909-4.206-4.202-4.206h-63.056zM370.084 3.333v143.334A3.333 3.333 0 0 1 366.75 150h-84.56c-13.718 0-24.839-11.12-24.839-24.838V64.019c0-13.72 11.122-24.842 24.842-24.842h67.254V3.333A3.333 3.333 0 0 1 352.78 0h13.97a3.333 3.333 0 0 1 3.333 3.333zm-24.838 126.03a4.214 4.214 0 0 0 4.202-4.201V64.019a4.218 4.218 0 0 0-4.206-4.206H282.19a4.218 4.218 0 0 0-4.205 4.206v61.143a4.214 4.214 0 0 0 4.202 4.202h63.059zM500 64.015v37.558a3.333 3.333 0 0 1-3.333 3.334h-88.762v20.255a4.214 4.214 0 0 0 4.202 4.202h84.56a3.333 3.333 0 0 1 3.333 3.333v13.97a3.333 3.333 0 0 1-3.333 3.333h-84.56c-13.718 0-24.839-11.12-24.839-24.838V64.019c0-13.72 11.123-24.842 24.842-24.842h63.052c13.718 0 24.838 11.12 24.838 24.838zM479.364 84.27V64.02a4.218 4.218 0 0 0-4.206-4.206h-63.051a4.214 4.214 0 0 0-4.202 4.202V84.27h71.459z"/><g><path d="M23.994 9.723c0 .66-.104 1.248-.347 1.77.798.833 1.353 2.048 1.353 3.298v5.383C25 22.847 22.813 25 20.139 25H0V0h19.167c2.639 0 4.827 2.153 4.827 4.826v4.897zM4.826 4.583a.238.238 0 0 0-.243.243v4.897c0 .138.104.243.243.243h14.34c.105 0 .21-.105.21-.243V4.826c0-.138-.105-.243-.21-.243H4.827zM20.382 14.79c0-.138-.103-.207-.243-.207H4.826c-.139 0-.243.069-.243.207v5.383c0 .139.104.243.243.243h15.313c.14 0 .243-.104.243-.243v-5.383zM32.29 0h4.583v25H32.29zM67.114 0v4.583H56.939V25h-4.616V4.583H42.114V0zM78.015 4.583a.237.237 0 0 0-.243.243v15.348c0 .139.103.243.243.243h20.103V25H78.015a4.817 4.817 0 0 1-4.828-4.826V4.826A4.817 4.817 0 0 1 78.015 0h20.103v4.583H78.015zM125.302 0c2.64 0 4.826 2.153 4.826 4.826v15.348c0 2.673-2.187 4.826-4.826 4.826h-15.346a4.817 4.817 0 0 1-4.828-4.826V4.826A4.817 4.817 0 0 1 109.956 0h15.346zm0 20.417c.105 0 .21-.105.21-.243V4.826c0-.139-.105-.243-.21-.243h-15.346a.237.237 0 0 0-.243.243v15.348c0 .139.103.243.243.243h15.346zM137.453 0h4.583v25h-4.583zM168.911 0h4.618v25h-5L153.111 6.667V25h-4.584V0h5.001l15.382 18.333V0zM185.713 4.583a.237.237 0 0 0-.243.243v15.348c0 .139.103.243.243.243h20.103V25h-20.103a4.817 4.817 0 0 1-4.828-4.826V4.826A4.817 4.817 0 0 1 185.713 0h20.103v4.583h-20.103zM233.106 0c2.673 0 4.862 2.153 4.862 4.826V25h-4.619v-8.403h-15.798V25h-4.583V4.826A4.815 4.815 0 0 1 217.794 0h15.312zm.243 12.014V4.826a.238.238 0 0 0-.243-.243h-15.312a.238.238 0 0 0-.243.243v7.188h15.798zM270.222 6.736h-4.618v-1.91c0-.139-.105-.243-.21-.243h-15.346a.238.238 0 0 0-.243.243v5.14c0 .138.105.243.243.243h15.347c2.639 0 4.827 2.153 4.827 4.825v5.14c0 2.673-2.188 4.826-4.827 4.826h-15.347a4.817 4.817 0 0 1-4.827-4.826v-1.91h4.584v1.91c0 .139.105.243.243.243h15.347c.104 0 .209-.104.209-.243v-5.14c0-.138-.105-.243-.21-.243h-15.346a4.817 4.817 0 0 1-4.827-4.825v-5.14A4.817 4.817 0 0 1 250.048 0h15.347c2.639 0 4.827 2.153 4.827 4.826v1.91zM302.996 0v25h-4.582V14.791h-16.39V25h-4.583V0h4.583v10.209h16.39V0z"/></g></g></svg>