<svg xmlns="http://www.w3.org/2000/svg" width="67.45mm" height="185.518" version="1.1" viewBox="0 0 67.45 49.085"><defs><marker id="Arrow1Lend" orient="auto" overflow="visible"><path fill="context-stroke" fill-rule="evenodd" stroke="context-stroke" stroke-width="1pt" d="m0 0 5-5-17.5 5 17.5 5z" transform="matrix(-.8 0 0 -.8 -10 0)"/></marker><marker id="Arrow1Lstart" orient="auto" overflow="visible"><path fill="context-stroke" fill-rule="evenodd" stroke="context-stroke" stroke-width="1pt" d="m0 0 5-5-17.5 5 17.5 5z" transform="matrix(.8 0 0 .8 10 0)"/></marker></defs><g fill="none" stroke="#000"><path stroke-width=".265" marker-end="url(#Arrow1Lend)" marker-start="url(#Arrow1Lstart)" d="m54.876 22.46v41.074h62.138" transform="translate(-50.218 -21.946)"/><path stroke-width=".265" d="m54.876 63.534c0.93633-6.2028 26.46-17.687 61.697-22.977" transform="translate(-50.218 -21.946)"/><path stroke-dasharray=".794 .794" stroke-width=".265" d="m54.869 28.065h61.703" transform="translate(-50.218 -21.946)"/></g><g stroke-width=".265" font-family="'Liberation Sans'" font-size="3.528" letter-spacing="0" word-spacing="0"><text x="50.395" y="5.183" style="line-height:1" xml:space="preserve"><tspan x="50.395" y="5.183" stroke-width=".265">real costs</tspan></text><text x="22.597" y="15.05" style="line-height:1" xml:space="preserve"><tspan x="22.597" y="15.05" stroke-width=".265">unknown costs</tspan></text><text x="41.854" y="28.964" transform="rotate(-10.07)" style="line-height:1" xml:space="preserve"><tspan x="41.854" y="28.964" stroke-width=".265">proven costs</tspan></text><text x="-6.687" y="2.281" transform="rotate(-90)" style="line-height:1" xml:space="preserve"><tspan x="-6.687" y="2.281" stroke-width=".265">cost</tspan></text><text x="45.084" y="45.876" style="line-height:1" xml:space="preserve"><tspan x="45.084" y="45.876">effort to prove,</tspan></text><text x="45.084" y="49.051" style="line-height:1" xml:space="preserve"><tspan x="45.084" y="49.051">meta cost</tspan></text></g></svg>