<svg xmlns="http://www.w3.org/2000/svg" width="83.68mm" height="189.521" version="1.1" viewBox="0 0 83.68 50.144"><defs><marker id="Arrow2Mend" orient="auto" overflow="visible"><path fill="context-stroke" fill-rule="evenodd" stroke="context-stroke" stroke-linejoin="round" stroke-width=".625" d="m8.7186 4.0337-10.926-4.0177 10.926-4.0177c-1.7455 2.3721-1.7354 5.6175 0 8.0354z" transform="scale(-.6)"/></marker><marker id="Arrow1Lend" orient="auto" overflow="visible"><path fill="context-stroke" fill-rule="evenodd" stroke="context-stroke" stroke-width="1pt" d="m0 0 5-5-17.5 5 17.5 5z" transform="matrix(-.8 0 0 -.8 -10 0)"/></marker><marker id="Arrow1Lstart" orient="auto" overflow="visible"><path fill="context-stroke" fill-rule="evenodd" stroke="context-stroke" stroke-width="1pt" d="m0 0 5-5-17.5 5 17.5 5z" transform="matrix(.8 0 0 .8 10 0)"/></marker></defs><path fill="none" stroke="#000" stroke-width=".265" marker-end="url(#Arrow1Lend)" marker-start="url(#Arrow1Lstart)" d="m4.836 0.51365v41.074h67.926"/><path fill="none" stroke="#000" stroke-width=".265" d="m4.836 41.588c0.71492-6.2028 20.203-17.687 47.107-22.977"/><g stroke-width=".265" font-family="'Liberation Sans'" font-size="3.528" letter-spacing="0" word-spacing="0"><text x="50.948" y="45.876" style="line-height:1" xml:space="preserve"><tspan x="50.948" y="46.667">effort to prove,</tspan></text><text x="11.696" y="12.349" style="line-height:1" xml:space="preserve"><tspan x="11.696" y="12.349" stroke-width=".265">unknown benefits</tspan></text><text x="20.867" y="30.6" transform="rotate(-15.058)" style="line-height:1" xml:space="preserve"><tspan x="20.867" y="30.6" stroke-width=".265">proven benefits</tspan></text><text x="-12.609" y="2.556" transform="rotate(-90)" style="line-height:1" xml:space="preserve"><tspan x="-12.609" y="2.556" stroke-width=".265">benefits</tspan></text></g><g stroke-width=".265"><path fill="none" stroke="#000" stroke-dasharray=".265 .794" marker-end="url(#Arrow2Mend)" d="m107.78 44.114c3.3472-1.0119 5.9978-3.601 6.9703-7.4689" transform="translate(-55.836 -25.504)"/><text x="105.64" y="35.094" font-family="'Liberation Sans'" font-size="3.528" letter-spacing="0" word-spacing="0" style="line-height:1" transform="translate(-55.836 -25.504)" xml:space="preserve"><tspan x="105.64" y="35.094" stroke-width=".265">upper bound?</tspan></text><path fill="none" stroke="#000" stroke-dasharray=".794 .794" d="m60.762 53.07h67.952" transform="translate(-55.836 -25.504)"/><text x="91.136" y="52.056" font-family="'Liberation Sans'" font-size="3.528" letter-spacing="0" word-spacing="0" style="line-height:1" transform="translate(-55.836 -25.504)" xml:space="preserve"><tspan x="91.136" y="52.056" stroke-width=".265">knowable costs treshold</tspan></text></g><circle cx="23.023" cy="27.69" r="1.191" style="paint-order:markers fill stroke"/><g stroke-width=".265" font-family="'Liberation Sans'" font-size="3.528" letter-spacing="0" word-spacing="0"><text x="61.163" y="16.859" style="line-height:1" xml:space="preserve"><tspan x="61.163" y="17.65">net benefits</tspan></text><text x="61.163" y="21.092" style="line-height:1" xml:space="preserve">post-activation</text><text x="50.948" y="50.109" style="line-height:1" xml:space="preserve">meta cost</text></g></svg>