<svg width="338" height="311" xmlns="http://www.w3.org/2000/svg"><g fill-rule="nonzero" fill="none"><path d="M337.17 177.83l-18.91-58.12L280.84 4.43a6.47 6.47 0 0 0-12.27 0l-37.42 115.21H106.82L69.4 4.43a6.46 6.46 0 0 0-12.26 0L19.78 119.64.87 177.83a12.88 12.88 0 0 0 4.66 14.39L169 311l163.44-118.78a12.9 12.9 0 0 0 4.73-14.39" fill="#FC6D26"/><path d="M169 310.91l62.16-191.28H106.87z" fill="#E24329"/><path d="M169 310.91l-62.18-191.28h-87z" fill="#FC6D26"/><path d="M19.75 119.69L.84 177.81A12.88 12.88 0 0 0 5.5 192.2L169 311 19.75 119.69z" fill="#FCA326"/><path d="M19.78 119.69h87.11L69.4 4.49a6.47 6.47 0 0 0-12.27 0l-37.35 115.2z" fill="#E24329"/><path d="M169 310.91l62.16-191.28h87.14z" fill="#FC6D26"/><path d="M318.24 119.69l18.91 58.12a12.85 12.85 0 0 1-4.66 14.39L169 310.91l149.2-191.22h.04z" fill="#FCA326"/><path d="M318.28 119.69h-87.1L268.6 4.49a6.46 6.46 0 0 1 12.26 0l37.42 115.2z" fill="#E24329"/></g></svg>