<svg width="340" height="315" xmlns="http://www.w3.org/2000/svg"><path d="M338.48 176.35l-17.78-54.63a7.72 7.72 0 0 0-.43-1.47L284.6 10.45A14.18 14.18 0 0 0 271.06.78a13.94 13.94 0 0 0-13.38 9.75l-34 104.63H116.37L82.32 10.53A13.94 13.94 0 0 0 69 .78h-.08a14.219 14.219 0 0 0-13.5 9.76l-35.7 109.93c0 .1-.08.18-.11.28l-18.1 55.61a20.29 20.29 0 0 0 7.37 22.71L165.26 312.7a8 8 0 0 0 9.45-.05l156.41-113.58a20.28 20.28 0 0 0 7.36-22.72m-233.75-45.13l43.59 134.16L43.68 131.22m148.05 134.19l41.8-128.62 1.8-5.57h61.1L201.76 252.5M271.2 20.83l30.63 94.33h-61.31m-22.03 16l-30.37 93.46L170 280.28l-48.42-149.12M68.85 20.83l30.69 94.33H38.27m-19.98 70.97a4.31 4.31 0 0 1-1.56-4.83L30.17 140l98.57 126.37m192.98-80.24l-110.46 80.21.37-.48L309.83 140l13.44 41.28a4.31 4.31 0 0 1-1.55 4.84"/></svg>