<svg height="512" viewBox="0 0 24 24" width="512" xmlns="http://www.w3.org/2000/svg"><path d="M12 24c6.617 0 12-5.383 12-12S18.617 0 12 0 0 5.383 0 12s5.383 12 12 12zm0-22.5c5.79 0 10.5 4.71 10.5 10.5S17.79 22.5 12 22.5 1.5 17.79 1.5 12 6.21 1.5 12 1.5z"/><path d="M7.896 14.155l1.568-.681-.44.441a.75.75 0 0 0-.22.53v2.935c0 .672.812.998 1.28.53l1.574-1.574 3.43 1.715a.75.75 0 0 0 1.073-.537l1.957-10.761a.751.751 0 0 0-1.012-.833L4.39 10.897a.75.75 0 0 0-.13 1.331L7.194 14.1c.21.134.475.155.702.055zm8.506-6.347l-1.537 8.455-3.02-1.509a.748.748 0 0 0-.865.141l-.676.676v-.813l3.007-3.007c.583-.583-.073-1.545-.829-1.218l-4.817 2.09-1.354-.864z"/></svg>