<svg viewBox="0 0 512 512" xmlns="http://www.w3.org/2000/svg"><path d="M503.8 106.1c-18.4 8.2-38.2 13.7-58.9 16.2 21.2-12.7 37.4-32.8 45.1-56.8-19.8 11.8-41.8 20.3-65.1 24.9-18.8-19.9-45.5-32.4-75-32.4-56.7 0-102.6 45.9-102.6 102.6 0 8 .9 15.9 2.7 23.4-85.3-4.3-160.8-45.1-211.4-107.2-8.8 15.1-13.9 32.8-13.9 51.6 0 35.6 18.1 67 45.6 85.4-16.8-.5-32.6-5.1-46.5-12.8v1.3c0 49.7 35.4 91.2 82.3 100.6-8.6 2.3-17.7 3.6-27 3.6-6.6 0-13-.6-19.3-1.8 13.1 40.8 50.9 70.4 95.8 71.2-35.1 27.5-79.3 43.9-127.4 43.9-8.3 0-16.4-.5-24.5-1.4 45.4 29.1 99.3 46.1 157.2 46.1 188.7 0 291.9-156.3 291.9-291.9 0-4.4-.1-8.9-.3-13.3 20.1-14.5 37.5-32.6 51.3-53.2z" fill="#1da1f2"/></svg>