<svg xmlns="http://www.w3.org/2000/svg" width="356.563" height="100" viewBox="0 0 356.563 100"><g transform="translate(-6027 546.92)"><g transform="translate(4248.343 -52.839)"><path d="M50,100a50.367,50.367,0,0,1-10.077-1.016,49.726,49.726,0,0,1-17.879-7.523,50.146,50.146,0,0,1-18.115-22,49.747,49.747,0,0,1-2.913-9.386,50.487,50.487,0,0,1,0-20.153A49.726,49.726,0,0,1,8.539,22.045a50.146,50.146,0,0,1,22-18.115,49.748,49.748,0,0,1,9.386-2.913,50.487,50.487,0,0,1,20.153,0A49.726,49.726,0,0,1,77.955,8.539a50.146,50.146,0,0,1,18.115,22,49.746,49.746,0,0,1,2.913,9.386,50.486,50.486,0,0,1,0,20.153,49.726,49.726,0,0,1-7.523,17.879,50.146,50.146,0,0,1-22,18.115,49.746,49.746,0,0,1-9.386,2.913A50.367,50.367,0,0,1,50,100Zm0-87.107a37.38,37.38,0,0,0-7.478.754A36.9,36.9,0,0,0,29.253,19.23,37.216,37.216,0,0,0,15.809,35.556a36.92,36.92,0,0,0-2.162,6.965,37.469,37.469,0,0,0,0,14.957A36.9,36.9,0,0,0,19.23,70.747,37.216,37.216,0,0,0,35.556,84.191a36.921,36.921,0,0,0,6.965,2.162,37.47,37.47,0,0,0,14.957,0A36.9,36.9,0,0,0,70.747,80.77,37.215,37.215,0,0,0,84.191,64.444a36.921,36.921,0,0,0,2.162-6.965,37.47,37.47,0,0,0,0-14.957A36.9,36.9,0,0,0,80.77,29.253,37.216,37.216,0,0,0,64.444,15.809a36.92,36.92,0,0,0-6.965-2.162A37.381,37.381,0,0,0,50,12.893Z" transform="translate(1778.657 -494.08)" fill="#3663e0"/><path d="M42.9,85.8a43.218,43.218,0,0,1-8.646-.872,42.667,42.667,0,0,1-15.341-6.455A43.027,43.027,0,0,1,3.371,59.6a42.685,42.685,0,0,1-2.5-8.053,43.321,43.321,0,0,1,0-17.292A42.667,42.667,0,0,1,7.327,18.915,43.027,43.027,0,0,1,26.2,3.371a42.685,42.685,0,0,1,8.053-2.5,43.321,43.321,0,0,1,17.292,0A42.667,42.667,0,0,1,66.889,7.327,43.027,43.027,0,0,1,82.432,26.2a42.685,42.685,0,0,1,2.5,8.053,43.32,43.32,0,0,1,0,17.292,42.667,42.667,0,0,1-6.455,15.341A43.027,43.027,0,0,1,59.6,82.432a42.685,42.685,0,0,1-8.053,2.5A43.218,43.218,0,0,1,42.9,85.8Zm0-80.009a37.382,37.382,0,0,0-7.478.754,36.9,36.9,0,0,0-13.269,5.583A37.215,37.215,0,0,0,8.711,28.458a36.921,36.921,0,0,0-2.162,6.965,37.469,37.469,0,0,0,0,14.957,36.9,36.9,0,0,0,5.583,13.269A37.216,37.216,0,0,0,28.458,77.093a36.922,36.922,0,0,0,6.965,2.162,37.469,37.469,0,0,0,14.957,0,36.9,36.9,0,0,0,13.269-5.584A37.216,37.216,0,0,0,77.093,57.346a36.921,36.921,0,0,0,2.162-6.965,37.469,37.469,0,0,0,0-14.957,36.9,36.9,0,0,0-5.583-13.269A37.215,37.215,0,0,0,57.346,8.711,36.921,36.921,0,0,0,50.38,6.549,37.382,37.382,0,0,0,42.9,5.795Z" transform="translate(1785.657 -487.08)" fill="#2a4dad"/><g transform="translate(-10.306 -21.976)"><path d="M484.337,499.925l-.043-.052a7.009,7.009,0,0,0-4.963-2.077H462.859v26.148h4.669v-9.628h11.8a7.009,7.009,0,0,0,4.963-2.077l.043-.052a7,7,0,0,0,2.055-4.968v-2.325A7,7,0,0,0,484.337,499.925Zm-2.577,7.293a2.465,2.465,0,0,1-.71,1.718,2.352,2.352,0,0,1-1.681.672H467.528V502.5h11.841a2.352,2.352,0,0,1,1.681.672,2.464,2.464,0,0,1,.71,1.718Z" transform="translate(1379.57 -932.901)" fill="#f6f7fa"/><path d="M363.869,510.889a8.429,8.429,0,0,0,8.417,8.417H380.7v-5.012h-8.417v-4.676h13.093v14.365H372.286a13.093,13.093,0,0,1,0-26.186h13.093v4.676H372.286A8.43,8.43,0,0,0,363.869,510.889Z" transform="translate(1452.769 -932.901)" fill="#f6f7fa"/></g></g><g transform="translate(7 15.347)"><path d="M483.322,96.141l-4.9-7.311h-3.949v7.311h-5.026V73.295H479.9c5.385,0,8.616,2.839,8.616,7.539V80.9a7.1,7.1,0,0,1-4.9,7.082l5.581,8.159Zm.1-15.045c0-2.154-1.5-3.264-3.949-3.264h-4.993v6.56h5.092c2.447,0,3.851-1.305,3.851-3.231Z" transform="translate(5793.58 -613.48)" fill="#fff"/><path d="M230.4,159.191h-3.818v6.854h-5.026V143.2h9.334c5.451,0,8.747,3.231,8.747,7.9v.065c0,5.287-4.113,8.028-9.237,8.028m4.145-8c0-2.252-1.567-3.46-4.079-3.46h-3.884v6.984h3.982c2.513,0,3.982-1.5,3.982-3.459Z" transform="translate(5920.263 -649.203)" fill="#fff"/><path d="M286.688,166.044l-4.9-7.311h-3.949v7.311h-5.026V143.2H283.26c5.385,0,8.617,2.839,8.617,7.539v.066a7.1,7.1,0,0,1-4.9,7.082l5.581,8.159Zm.1-15.045c0-2.154-1.5-3.264-3.949-3.264h-4.994v6.56h5.092c2.447,0,3.851-1.306,3.851-3.231Z" transform="translate(5894.066 -649.202)" fill="#fff"/><path d="M337.788,166.027a11.705,11.705,0,0,1-12.108-11.749v-.066a12.146,12.146,0,0,1,24.281-.065v.065a11.814,11.814,0,0,1-12.173,11.814m6.918-11.814a6.941,6.941,0,0,0-6.918-7.18,6.832,6.832,0,0,0-6.854,7.115v.065a6.941,6.941,0,0,0,6.919,7.18,6.832,6.832,0,0,0,6.853-7.114Z" transform="translate(5867.051 -648.794)" fill="#fff"/><path d="M397.8,147.833v18.211h-5.026V147.833h-6.951V143.2h18.929v4.635Z" transform="translate(5836.319 -649.203)" fill="#fff"/><path d="M447.118,166.027a11.705,11.705,0,0,1-12.108-11.749v-.066a12.146,12.146,0,0,1,24.281-.065v.065a11.814,11.814,0,0,1-12.173,11.814m6.918-11.814a6.941,6.941,0,0,0-6.918-7.18,6.832,6.832,0,0,0-6.854,7.115v.065a6.941,6.941,0,0,0,6.919,7.18,6.832,6.832,0,0,0,6.853-7.114Z" transform="translate(5811.181 -648.794)" fill="#fff"/><path d="M565.125,166.027a11.705,11.705,0,0,1-12.108-11.749v-.066a12.146,12.146,0,0,1,24.282-.065v.065a11.814,11.814,0,0,1-12.173,11.814m6.919-11.814a6.941,6.941,0,0,0-6.919-7.18,6.832,6.832,0,0,0-6.854,7.115v.065a6.941,6.941,0,0,0,6.919,7.18,6.833,6.833,0,0,0,6.854-7.114Z" transform="translate(5750.875 -648.794)" fill="#fff"/><path d="M241.193,73.3H230.187a11.422,11.422,0,1,0,0,22.843h11.437V82.329H229.756v4.787h7.075v4.24h-6.644a6.634,6.634,0,1,1,0-13.268h11.437V73.3Z" transform="translate(5921.696 -613.483)" fill="#fff"/><path d="M538.173,78.782l8.151,15.31h5.188L538.173,69.037,524.834,94.093h5.188Z" transform="translate(5765.278 -611.304)" fill="#fff"/><path d="M519.141,161.281h-6.985a6.634,6.634,0,1,1,0-13.269h6.985v-4.787h-6.985a11.422,11.422,0,1,0,0,22.843h6.985Z" transform="translate(5777.601 -649.216)" fill="#fff"/><path d="M293.038,77.751H305.7V73.172H293.038a6.607,6.607,0,0,0-6.6,6.6v9.7a6.607,6.607,0,0,0,6.6,6.6H305.7V91.489H293.038a2.023,2.023,0,0,1-2.02-2.02V86.91H303.39V82.33H291.017V79.772a2.023,2.023,0,0,1,2.02-2.02" transform="translate(5887.106 -613.417)" fill="#fff"/><path d="M614.573,96.131H603.887a6.607,6.607,0,0,1-6.6-6.6V73.295h4.579V89.531a2.023,2.023,0,0,0,2.021,2.02h10.686Z" transform="translate(5728.252 -613.48)" fill="#fff"/><path d="M636.267,166.06H625.582a6.607,6.607,0,0,1-6.6-6.6V143.224h4.579V159.46a2.023,2.023,0,0,0,2.02,2.02h10.686Z" transform="translate(5717.166 -649.216)" fill="#fff"/><path d="M415.757,77.751h12.658V73.172H415.757a6.607,6.607,0,0,0-6.6,6.6v9.7a6.607,6.607,0,0,0,6.6,6.6h12.658V91.489H415.757a2.023,2.023,0,0,1-2.02-2.02V86.91h12.373V82.33H413.736V79.772a2.023,2.023,0,0,1,2.02-2.02" transform="translate(5824.393 -613.417)" fill="#fff"/><path d="M675.771,165.977h-9.6V161.4h9.6a2.338,2.338,0,1,0,0-4.637h-3.393a6.9,6.9,0,1,1,0-13.8h9.6v4.58h-9.6a2.338,2.338,0,1,0,0,4.636h3.393a6.9,6.9,0,1,1,0,13.8" transform="translate(5693.569 -649.084)" fill="#fff"/><path d="M351.785,95.473h-4.849V72.722l15.251,12.443V72.628h4.849V95.379L351.785,82.936Z" transform="translate(5856.189 -613.139)" fill="#fff"/><rect width="13.633" height="4.579" transform="translate(6296.749 -527.459)" fill="#f6f7fa"/></g></g></svg>