<svg width="136" height="136" xmlns="http://www.w3.org/2000/svg"><g stroke="#000" stroke-width="7" fill="none" fill-rule="evenodd"><path d="M30.892 84.886A13.446 13.446 0 1 1 17.447 71.44h13.446v13.446zM37.668 84.886a13.447 13.447 0 1 1 26.892 0v33.668c0 7.426-6.02 13.446-13.446 13.446s-13.446-6.02-13.446-13.446V84.886zM51.114 30.892A13.446 13.446 0 1 1 64.56 17.447v13.446H51.114zM51.114 37.668a13.447 13.447 0 1 1 0 26.892H17.446C10.02 64.56 4 58.54 4 51.114s6.02-13.446 13.446-13.446h33.668zM105.108 51.114a13.446 13.446 0 1 1 13.446 13.446h-13.446V51.114zM98.332 51.114a13.446 13.446 0 1 1-26.892 0V17.446a13.446 13.446 0 1 1 26.892 0v33.668zM84.886 105.108a13.446 13.446 0 1 1-13.446 13.446v-13.446h13.446zM84.886 98.332a13.446 13.446 0 1 1 0-26.892h33.668c7.412.02 13.41 6.034 13.41 13.446s-5.998 13.426-13.41 13.446H84.886z"/></g></svg>