<svg width="351" height="263" xmlns="http://www.w3.org/2000/svg"><path d="M299.675 81.23c0-2.645-.058-5.28-.173-7.902A124.324 124.324 0 0 0 330 41.668a121.911 121.911 0 0 1-35.11 9.625 61.353 61.353 0 0 0 26.885-33.817 122.611 122.611 0 0 1-38.824 14.84c-18.95-20.153-49.063-25.087-73.453-12.035-24.39 13.053-36.99 40.845-30.734 67.792a173.59 173.59 0 0 1-126.026-63.88c-16.228 27.938-7.94 63.679 18.93 81.623a60.691 60.691 0 0 1-27.69-7.647c-.01.257-.01.507-.01.781.006 29.105 20.522 54.173 49.051 59.934a61.04 61.04 0 0 1-27.613 1.05c8.005 24.907 30.957 41.972 57.115 42.465a122.654 122.654 0 0 1-75.937 26.17c-4.874.005-9.743-.278-14.584-.846a173.072 173.072 0 0 0 93.722 27.464c112.457 0 173.953-93.168 173.953-173.956z" stroke="#000" stroke-width="15" fill="none" fill-rule="evenodd"/></svg>